<svg width="20" height="20" viewBox="0 0 20 20" fill="none" xmlns="http://www.w3.org/2000/svg">
<path d="M17.5 0H2.5C1.167 0 0 1.083 0 2.5V17.5C0 18.833 1.167 20 2.5 20H17.5C18.917 20 20 18.833 20 17.5V2.5C20 1.083 18.917 0 17.5 0ZM15.25 8.417L10.333 13.25C9.167 14.333 8.417 15.583 7.5 14.75L5.083 12.333C3.75 11 2.75 10.5 3.75 9.583C4.583 8.667 5.083 8.167 5.75 8.833C6.417 9.5 7.5 10.583 8.167 11.167C8.417 11 12.333 7.083 13.167 6.417C14.917 4.667 14.833 4.667 16 5.75C17.167 6.917 16.833 6.917 15.25 8.417Z" fill="#84c4cb"/>
</svg>
