<svg width="40" height="48" viewBox="0 0 40 48" fill="none" xmlns="http://www.w3.org/2000/svg">
<g clip-path="url(#clip0_548_273)">
<path d="M17.693 45.7085L19.9913 48L34.1045 33.9285C37.7049 30.33 39.9377 25.3636 39.9377 19.8787C39.9377 8.90035 31.011 0 20.0001 0C8.98919 0 0.0625 8.90035 0.0625 19.8787C0.0625 25.3592 2.29526 30.3387 5.88254 33.9154C6.1884 34.2204 6.59039 34.399 7.04481 34.399C7.94053 34.399 8.66586 33.6758 8.66586 32.7827C8.66586 32.3296 8.46923 31.9158 8.16774 31.6152C5.17033 28.6266 3.30023 24.4574 3.30023 19.8787C3.30023 10.6996 10.7894 3.23253 19.9957 3.23253C29.2021 3.23253 36.6956 10.6996 36.6956 19.8787C36.6956 24.4705 34.8211 28.631 31.7975 31.6457L17.693 45.7085Z" fill="#84c4cb"/>
<path d="M26 16C26 19.3137 22.5 30 20 32.5C17.5 30 14 19.3137 14 16C14 12.6863 16.6863 10 20 10C23.3137 10 26 12.6863 26 16Z" fill="#84c4cb"/>
</g>
<defs>
<clipPath id="clip0_548_273">
<rect width="40" height="48" fill="white"/>
</clipPath>
</defs>
</svg>
