<svg width="47" height="46" viewBox="0 0 47 46" fill="none" xmlns="http://www.w3.org/2000/svg"><path fill-rule="evenodd" clip-rule="evenodd" d="M15.347 45.298c.266-.206.182-1.002-.131-1.257-.205-.166-1.76-.678-3.83-1.26-1.456-.41-6.029-1.563-6.786-1.712l-.4-.078.148-.206c.082-.113.551-.645 1.043-1.182 1.45-1.585 3.003-2.952 5.297-4.662.586-.437.747-.755.656-1.302-.114-.683-.656-1.157-1.255-1.098-.776.077-4.861 3.454-6.837 5.652-.98 1.09-2.017 2.378-2.376 2.95-.22.352-.25.475-.196.798.08.48.456.927.897 1.068.703.224 5.05 1.163 7.399 1.598 4.355.806 5.994.984 6.371.69zm3.42-4.717c2.4-1.026 4.493-2.494 6.164-4.327.633-.693 1.572-1.942 1.82-2.419l.16-.31.764.403c1.75.923 3.417 1.038 5.421.374 1.141-.378 1.85-.737 3.006-1.524 1.65-1.124 3.412-2.945 4.694-4.855 1.37-2.038 2.81-5.038 3.663-7.624 1.943-5.9 2.453-12.69 1.433-19.083l-.136-.85-.268-.125c-.362-.167-.689-.062-.907.293-.162.263-.164.367-.033 1.385.893 6.954-.036 13.85-2.73 20.268-.594 1.415-1.933 3.855-2.666 4.86-1.133 1.552-2.647 3.091-3.856 3.917-1.233.844-3.086 1.606-4.073 1.676-.798.057-1.69-.162-2.53-.62l-.75-.41.159-.412c1.178-3.044 1.552-6.333 1.071-9.425-.52-3.351-2.471-5.958-4.766-6.371-2.57-.462-4.507.926-4.931 3.533-.534 3.28 1.48 8.3 4.902 12.216.377.431.693.812.703.846.035.121-.92 1.48-1.612 2.293-3.122 3.672-7.909 5.63-12.776 5.223-1.108-.092-1.515-.011-1.831.364-.487.578-.484 1.44.006 1.794.427.31 2.966.409 4.966.193 1.304-.14 3.744-.774 4.933-1.282zm6-12.687c-1.514-2.222-2.4-4.05-2.823-5.817-.462-1.932-.323-3.246.416-3.933.214-.2.381-.278.78-.364.432-.094.588-.083 1.047.074 1.1.376 1.713 1.125 2.237 2.734.843 2.586.81 5.52-.096 8.524l-.198.658-.256-.311c-.14-.172-.64-.876-1.108-1.564z" fill="#CEDAE0"/></svg>