<svg width="197" height="57" viewBox="0 0 197 57" fill="none" xmlns="http://www.w3.org/2000/svg"><path d="M60.162 5.308a5 5 0 015-5h126a5 5 0 015 5v46a5 5 0 01-5 5h-126a5 5 0 01-5-5v-46z" fill="#10A5C8"/><path d="M42.586 30.145a3 3 0 010-3.675L61.29 2.33c1.752-2.26 5.372-1.021 5.372 1.838v48.279c0 2.86-3.62 4.098-5.372 1.837L42.586 30.146z" fill="#10A5C8"/><mask id="a" maskUnits="userSpaceOnUse" x="41" y="0" width="156" height="57"><path d="M60.163 5.308a5 5 0 015-5h126a5 5 0 015 5v46a5 5 0 01-5 5h-126a5 5 0 01-5-5v-46z" fill="#10A5C8"/><path d="M42.587 30.145a3 3 0 010-3.675L61.29 2.33c1.752-2.26 5.372-1.021 5.372 1.838v48.279c0 2.86-3.62 4.098-5.372 1.837L42.587 30.146z" fill="#10A5C8"/></mask><g filter="url(#filter0_f)" mask="url(#a)"><path d="M199.655 11.28c23.58 32.472 32.551 66.162 20.036 75.25-12.515 9.088-41.776-9.868-65.356-42.34-23.581-32.472-32.551-66.163-20.036-75.25 12.514-9.089 41.775 9.868 65.356 42.34z" fill="#fff" fill-opacity=".3"/></g><circle cx="62.162" cy="28.308" r="9" fill="#fff"/><path d="M14.957 18.808c7.191 10.027 11.75 16.5 17 20.064 10.337 7.02 20.55 2.507 23.697 0 3.146-2.507 4.045-6.518 2.696-9.526-1.078-2.407-3.146-4.68-4.045-5.515" stroke="#005265" stroke-width="2"/><path d="M.957 31.808c18.5-3.5 16.5-4 27.5-9 2.576-1.171 12-6.685 19.5-2.685" stroke="#005265" stroke-width="2"/><defs><filter id="filter0_f" x="84.639" y="-74.516" width="184.712" height="204.502" filterUnits="userSpaceOnUse" color-interpolation-filters="sRGB"><feFlood flood-opacity="0" result="BackgroundImageFix"/><feBlend in="SourceGraphic" in2="BackgroundImageFix" result="shape"/><feGaussianBlur stdDeviation="13.5" result="effect1_foregroundBlur"/></filter></defs></svg>