<svg width="29" height="17" viewBox="0 0 29 17" fill="none" xmlns="http://www.w3.org/2000/svg"><path fill-rule="evenodd" clip-rule="evenodd" d="M20.871.01c-1.608.11-2.968.656-4.001 1.605-.934.859-1.496 1.866-1.678 3.01-.21 1.312.044 2.615.707 3.624.617.941 1.649 1.742 2.795 2.171.904.338 1.803.466 3.088.438.326-.008.592-.007.592 0 0 .026-.199.478-.307.7-.936 1.915-2.487 3.34-4.52 4.155a12.33 12.33 0 01-1.73.538 5.804 5.804 0 00-.274.063c-.072.025.837.206 1.343.268.309.038.42.042.877.032a9.902 9.902 0 004.77-1.34c1.15-.659 2.291-1.624 3.227-2.726 1.438-1.695 2.216-3.496 2.376-5.5.034-.421.015-1.346-.034-1.666-.196-1.285-.725-2.337-1.653-3.286a9.856 9.856 0 00-.956-.82A6.938 6.938 0 0022.194.042a9.625 9.625 0 00-1.323-.03zM5.684.39c-1.322.1-2.426.477-3.381 1.151A6.455 6.455 0 00.938 2.895C.181 3.951-.13 5.264.05 6.638c.055.42.126.707.273 1.092.373.982 1.051 1.794 2.048 2.456.596.396 1.32.7 2.07.867.657.147 1.084.183 2.068.174.41-.004.746-.001.746.006s-.05.128-.11.27c-.555 1.281-1.327 2.33-2.34 3.181-1.076.902-2.489 1.571-4.083 1.935-.18.041-.317.08-.304.088.036.02.638.144.928.191.802.132 1.444.135 2.36.012 2.015-.271 3.8-1.09 5.436-2.495 1.956-1.679 3.196-3.592 3.668-5.66.174-.76.242-1.443.221-2.226-.013-.518-.03-.694-.11-1.098-.21-1.082-.738-2.076-1.55-2.915a9.755 9.755 0 00-.936-.815C9.457.988 8.365.568 7.107.419A10.567 10.567 0 005.684.39z" fill="#3E586A"/></svg>